<?xml version="1.0" standalone="no"?>
<!DOCTYPE svg PUBLIC "-//W3C//DTD SVG 20010904//EN"
 "http://www.w3.org/TR/2001/REC-SVG-20010904/DTD/svg10.dtd">
<svg version="1.0" xmlns="http://www.w3.org/2000/svg"
 width="8542.000000pt" height="2083.000000pt" viewBox="0 0 8542.000000 2083.000000"
 preserveAspectRatio="xMidYMid meet">

<g transform="translate(0.000000,2083.000000) scale(0.100000,-0.100000)"
fill="#000000" stroke="none">
<path d="M63215 15573 c-4899 -110 -9678 -1182 -14010 -3143 -566 -256 -1340
-634 -1844 -899 -3425 -1805 -7417 -2823 -12016 -3066 -908 -47 -1456 -58
-2585 -52 -900 5 -1100 9 -1755 37 -3840 161 -8132 767 -13340 1884 -1958 420
-3886 870 -7135 1666 -1757 431 -2879 705 -3315 810 -3084 744 -5103 1177
-6825 1464 -184 31 -347 59 -363 62 l-27 6 0 -7129 0 -7129 66 -42 65 -42
42630 0 42629 0 0 4184 0 4184 -162 139 c-2706 2318 -6267 4208 -10248 5438
-3206 990 -6521 1530 -9990 1625 -307 8 -1451 11 -1775 3z"/>
</g>
</svg>
