<?xml version="1.0" standalone="no"?>
<!DOCTYPE svg PUBLIC "-//W3C//DTD SVG 20010904//EN"
 "http://www.w3.org/TR/2001/REC-SVG-20010904/DTD/svg10.dtd">
<svg version="1.0" xmlns="http://www.w3.org/2000/svg"
 width="8542.000000pt" height="3250.000000pt" viewBox="0 0 8542.000000 3250.000000"
 preserveAspectRatio="xMidYMid meet">

<g transform="translate(0.000000,3250.000000) scale(0.100000,-0.100000)"
fill="#000000" stroke="none">
<path d="M275 32339 c2060 -2653 3779 -5938 5282 -10094 120 -334 291 -819
573 -1630 464 -1335 712 -2018 1011 -2787 746 -1918 1509 -3444 2362 -4722
2195 -3291 5151 -5144 9107 -5710 507 -73 1003 -120 1655 -158 294 -17 1422
-17 1680 0 1203 80 2109 226 3310 532 741 189 1506 424 2705 833 844 287 1794
603 2099 697 1567 483 2731 709 3971 771 304 15 1081 6 1355 -15 1005 -80
1890 -252 2884 -561 1599 -496 2868 -1208 4486 -2514 267 -215 668 -552 1240
-1041 829 -708 1129 -958 1525 -1270 961 -756 1857 -1324 2723 -1727 1885
-875 3929 -1182 6412 -963 560 50 980 118 1440 235 1799 456 3295 1481 4809
3295 437 523 768 955 1516 1980 882 1207 1265 1699 1746 2240 169 190 552 579
729 740 1065 968 2143 1458 3413 1551 330 24 879 4 1262 -46 808 -105 1815
-397 2705 -785 788 -343 1680 -958 2555 -1761 810 -743 1516 -1503 3030 -3259
808 -937 1252 -1443 1642 -1868 835 -911 1566 -1617 2263 -2188 1234 -1010
2405 -1622 3628 -1898 16 -4 17 770 17 16140 l0 16144 -42630 0 -42630 0 125
-161z m37950 -9862 c74 -38 114 -106 122 -205 4 -58 -3 -96 -51 -289 -107
-424 -184 -621 -272 -703 -25 -23 -74 -55 -109 -72 -82 -38 -186 -41 -265 -7
-142 61 -165 209 -80 514 66 237 137 468 170 554 38 97 91 160 166 197 88 43
248 49 319 11z m-12632 -82 c68 -29 114 -72 148 -140 32 -65 32 -66 26 -173
-4 -59 -27 -215 -52 -347 -25 -132 -74 -411 -110 -619 -36 -209 -77 -432 -91
-495 -53 -247 -64 -304 -60 -308 2 -3 233 40 513 96 279 55 558 109 618 120
244 45 643 91 787 91 37 0 68 2 68 4 0 2 9 48 20 102 11 53 56 293 100 532 44
239 92 469 106 510 81 243 290 545 416 602 137 62 322 -17 384 -165 30 -72 21
-153 -35 -320 -54 -161 -104 -370 -153 -635 -29 -159 -115 -623 -219 -1180
-72 -383 -93 -547 -144 -1100 -25 -272 -50 -513 -56 -535 -54 -195 -242 -331
-432 -311 -140 14 -254 113 -278 240 -8 43 112 1100 156 1376 13 85 25 158 25
163 1 31 -564 -47 -1255 -173 -539 -98 -727 -137 -736 -151 -5 -8 -9 -23 -9
-34 0 -19 -20 -118 -134 -665 -24 -118 -59 -294 -76 -390 -18 -96 -41 -199
-52 -228 -29 -79 -113 -163 -206 -209 -68 -34 -83 -38 -156 -38 -62 0 -92 5
-128 22 -64 29 -123 93 -149 161 -38 103 -20 232 126 897 134 608 274 1395
485 2710 37 233 58 334 75 373 50 109 180 212 294 232 56 10 141 3 184 -15z
m4075 -169 c260 -133 253 -482 -14 -672 -34 -24 -88 -54 -121 -65 -60 -20
-172 -27 -228 -13 -57 13 -121 52 -164 99 -161 174 -103 459 124 610 85 56
156 76 260 72 74 -3 99 -8 143 -31z m6567 9 c435 -33 859 -89 943 -125 124
-53 177 -190 141 -362 -35 -166 -167 -296 -335 -330 -64 -13 -207 -3 -561 41
-123 15 -223 26 -223 25 0 -1 -11 -57 -25 -125 -82 -399 -162 -888 -284 -1724
-50 -341 -93 -629 -96 -640 -4 -20 1 -20 378 -20 381 0 382 0 435 -24 61 -28
106 -75 139 -149 22 -46 24 -64 21 -145 -3 -79 -8 -102 -35 -160 -41 -85 -126
-172 -208 -213 l-60 -29 -485 -11 c-648 -16 -732 -22 -1080 -71 -133 -19 -229
-27 -340 -27 -154 -1 -156 -1 -208 29 -64 35 -97 71 -130 143 -21 48 -24 64
-20 145 3 76 9 103 34 157 44 94 120 172 209 216 l73 36 188 9 c104 5 227 15
274 22 l85 12 37 270 c131 950 306 1989 383 2275 8 30 13 54 12 55 -1 0 -140
-4 -309 -9 -353 -10 -364 -8 -449 71 -73 68 -93 119 -93 233 0 114 21 176 88
262 85 107 185 155 351 167 190 15 936 12 1150 -4z m2910 -1039 c100 -46 184
-165 193 -270 2 -34 -6 -91 -26 -173 l-29 -122 96 92 c169 162 332 273 485
329 150 56 353 48 493 -19 71 -34 169 -130 203 -198 14 -27 26 -52 27 -54 1
-2 37 22 80 54 173 126 386 206 604 225 416 36 641 -144 705 -563 12 -79 15
-154 11 -337 -3 -129 -10 -462 -16 -740 -21 -989 -29 -1109 -76 -1200 -67
-130 -207 -210 -365 -210 -126 0 -203 37 -244 118 -57 115 -58 157 -23 1045
26 670 29 807 20 920 -17 192 -44 267 -96 267 -45 0 -358 -165 -538 -283 l-77
-49 -11 -107 c-18 -166 -30 -361 -41 -676 -12 -319 -34 -694 -51 -850 -21
-206 -54 -289 -146 -376 -202 -191 -500 -139 -570 100 -15 52 -14 66 6 236 29
247 37 359 61 810 23 439 42 676 70 909 21 167 25 256 13 256 -15 0 -158 -97
-238 -160 -103 -82 -294 -269 -399 -390 l-83 -95 -107 -650 c-64 -384 -115
-667 -126 -692 -44 -101 -172 -184 -316 -205 -242 -34 -359 103 -339 397 3 55
51 408 105 785 54 377 108 766 119 865 12 99 26 221 32 270 29 257 101 463
213 611 49 65 86 98 151 132 58 31 163 30 230 -2z m6268 -39 c55 -15 120 -77
147 -139 19 -42 24 -76 28 -170 l4 -117 58 51 c263 231 559 352 820 335 355
-23 539 -226 581 -640 18 -176 3 -376 -57 -772 -54 -357 -64 -472 -74 -875 -5
-206 -14 -402 -20 -435 -17 -89 -57 -162 -125 -231 -100 -100 -210 -137 -345
-114 -94 16 -155 56 -195 130 l-30 55 1 395 c1 555 24 792 120 1256 71 343 78
392 65 441 -18 67 -33 76 -117 71 -129 -9 -263 -88 -420 -249 -218 -225 -391
-491 -487 -749 -71 -191 -116 -440 -137 -750 -12 -178 -29 -279 -56 -331 -28
-55 -128 -147 -191 -176 -47 -22 -77 -28 -155 -31 -86 -4 -102 -2 -151 21 -98
45 -157 124 -165 225 -6 73 15 365 39 537 29 210 71 426 188 965 66 303 89
446 116 705 14 136 30 267 35 291 34 152 177 286 332 313 58 10 131 6 191 -12z
m13900 1 c55 -17 120 -78 147 -140 19 -42 24 -76 28 -170 l4 -117 58 51 c263
231 559 352 820 335 432 -28 625 -339 581 -938 -6 -93 -23 -245 -37 -337 -80
-536 -83 -574 -94 -1017 -5 -203 -14 -397 -20 -430 -17 -86 -54 -157 -117
-225 -93 -101 -217 -144 -349 -120 -111 19 -159 52 -205 140 l-24 45 1 395 c1
554 25 804 120 1258 70 335 78 390 65 439 -18 67 -33 76 -117 71 -129 -9 -263
-88 -420 -249 -216 -223 -393 -494 -487 -749 -71 -192 -116 -440 -137 -750
-18 -274 -41 -344 -142 -435 -89 -80 -157 -106 -278 -106 -76 0 -91 3 -149 33
-46 23 -74 46 -97 79 -55 76 -60 111 -46 336 18 296 59 558 157 1008 134 612
149 695 180 1000 29 281 35 317 71 388 87 171 300 261 487 205z m-8470 -76
c24 -11 63 -36 85 -56 103 -93 112 -200 38 -476 -98 -370 -125 -480 -150 -625
-49 -286 -59 -419 -60 -745 l-1 -305 50 -25 c44 -21 66 -25 183 -28 73 -2 179
1 235 8 141 16 360 59 373 73 6 7 46 242 88 522 170 1113 206 1297 287 1458
42 81 91 132 166 169 55 27 80 33 152 36 47 2 105 -1 128 -7 105 -29 195 -130
208 -235 7 -61 -15 -199 -120 -721 -61 -306 -89 -485 -164 -1040 -108 -797
-104 -775 -133 -833 -28 -61 -121 -153 -184 -185 -103 -52 -233 -59 -321 -16
-49 23 -109 86 -129 135 -8 19 -18 34 -22 34 -5 0 -41 -11 -81 -25 -281 -95
-658 -121 -892 -62 -221 57 -411 201 -470 357 -49 130 -54 184 -54 545 1 343
10 500 45 780 50 395 177 911 266 1088 51 100 146 176 248 197 62 14 178 4
229 -18z m15384 -32 c97 -34 173 -111 212 -214 28 -76 44 -214 36 -316 -8
-101 -40 -334 -56 -405 -24 -103 -108 -241 -176 -288 -74 -51 -111 -61 -223
-62 -94 0 -111 3 -155 26 -110 56 -134 137 -110 381 21 225 23 210 -22 202
-149 -27 -334 -103 -469 -194 -104 -70 -266 -234 -336 -340 l-56 -85 -96 -665
c-53 -366 -103 -694 -112 -728 -21 -79 -81 -171 -145 -222 -107 -85 -261 -109
-370 -58 -91 42 -149 141 -149 255 0 59 242 1716 310 2123 55 328 72 380 151
458 142 140 407 143 502 5 24 -36 57 -135 57 -175 0 -10 2 -18 5 -18 2 0 39
23 82 51 176 115 437 224 631 264 193 39 386 41 489 5z m-36841 -18 c103 -53
154 -131 162 -247 5 -85 -16 -217 -104 -639 -75 -357 -122 -630 -158 -911 -99
-770 -100 -774 -141 -855 -80 -158 -258 -251 -422 -220 -115 22 -197 97 -230
209 -16 55 -15 63 27 391 82 646 125 912 227 1395 30 143 68 338 83 433 34
202 56 257 131 337 62 66 101 91 177 116 76 25 190 21 248 -9z m28033 -8 c132
-19 293 -71 391 -126 46 -25 103 -69 146 -112 109 -110 154 -223 154 -392 0
-222 -101 -415 -291 -558 -182 -137 -385 -239 -1103 -557 l-528 -233 75 -72
c89 -86 195 -142 332 -175 72 -18 119 -22 240 -22 240 0 393 39 620 158 166
88 259 118 350 113 127 -7 191 -61 202 -172 25 -242 -157 -456 -520 -610 -229
-97 -409 -135 -685 -143 -337 -10 -548 28 -767 136 -365 181 -545 478 -545
903 0 420 154 861 440 1262 262 366 593 569 1005 616 106 12 351 4 484 -16z
m5497 15 c212 -29 497 -153 631 -274 33 -29 64 -70 84 -111 29 -58 31 -70 27
-136 -4 -55 -12 -86 -34 -127 -16 -29 -37 -69 -46 -87 -86 -165 -205 -917
-195 -1234 4 -128 7 -145 59 -325 31 -105 63 -226 72 -270 15 -73 15 -85 1
-132 -19 -65 -91 -162 -152 -208 -55 -40 -156 -75 -216 -75 -22 0 -61 10 -86
22 -43 20 -158 126 -228 210 l-32 37 -93 -43 c-360 -168 -570 -215 -836 -187
-271 28 -465 113 -612 268 -169 178 -241 401 -241 749 0 196 12 311 47 473
107 484 386 879 831 1177 308 206 715 316 1019 273z m-7491 -33 c70 -32 120
-78 150 -140 58 -119 42 -218 -65 -405 -60 -103 -793 -1321 -1287 -2136 -250
-412 -387 -659 -584 -1052 -233 -463 -268 -516 -374 -565 -41 -19 -67 -23
-145 -23 -109 0 -160 18 -228 80 -94 85 -116 201 -66 351 70 208 269 602 590
1165 l134 235 -50 158 c-111 344 -497 1389 -601 1622 -110 250 -123 348 -64
471 39 79 152 191 230 228 127 59 269 42 354 -43 108 -108 341 -650 551 -1280
l98 -292 183 317 c433 753 637 1072 758 1193 145 144 274 179 416 116z m13820
0 c145 -66 213 -211 171 -362 -24 -83 -56 -139 -666 -1149 -883 -1462 -912
-1511 -1034 -1730 -65 -115 -183 -341 -262 -502 -217 -436 -265 -508 -368
-555 -42 -19 -68 -23 -146 -23 -84 0 -102 3 -152 28 -153 75 -204 220 -142
402 71 210 274 612 595 1176 l129 225 -45 142 c-114 357 -497 1393 -610 1648
-106 240 -119 339 -60 461 38 77 151 190 228 228 124 60 271 42 356 -43 110
-112 338 -641 551 -1280 l98 -292 183 317 c342 595 539 916 661 1080 173 233
342 308 513 229z m-19915 -45 c124 -32 223 -84 296 -157 46 -46 71 -63 100
-69 86 -16 157 -74 195 -160 19 -40 23 -67 22 -140 0 -116 -28 -236 -144 -623
-139 -468 -232 -852 -324 -1342 -78 -416 -157 -682 -280 -935 -138 -286 -347
-510 -592 -634 -275 -138 -559 -186 -1003 -169 -411 15 -641 96 -723 252 -16
32 -21 58 -20 116 1 166 106 314 252 357 80 23 226 13 451 -32 296 -58 469
-58 643 0 274 93 462 363 582 836 14 54 25 101 25 104 0 4 -17 -8 -38 -27
-185 -167 -430 -248 -706 -235 -217 11 -420 81 -562 196 -125 100 -242 279
-294 446 -124 406 -11 989 277 1425 317 479 702 729 1238 805 155 22 494 14
605 -14z m-18446 -2362 c96 -35 176 -143 176 -236 0 -37 -65 -171 -162 -334
-183 -307 -372 -600 -406 -630 -20 -18 -61 -43 -92 -57 -74 -34 -192 -37 -261
-5 -93 42 -161 140 -162 232 0 59 68 196 236 476 233 389 330 512 437 553 73
28 162 28 234 1z"/>
<path d="M56862 20376 c-30 -7 -92 -33 -140 -56 -155 -77 -327 -273 -444 -504
-22 -43 -34 -76 -26 -73 119 48 632 269 718 309 117 55 329 169 409 219 l44
27 -49 25 c-86 44 -159 58 -314 62 -101 3 -161 1 -198 -9z"/>
<path d="M62633 20391 c-197 -31 -361 -120 -537 -290 -216 -210 -330 -458
-355 -774 -23 -276 31 -455 160 -537 151 -97 444 -67 679 71 36 21 80 50 97
66 l32 28 11 225 c24 513 77 907 149 1113 l20 57 -42 21 c-47 24 -134 32 -214
20z"/>
<path d="M48772 20369 c-285 -33 -503 -172 -671 -429 -148 -225 -218 -442
-228 -710 -11 -281 64 -427 243 -476 137 -37 272 -5 418 100 91 65 256 241
325 345 95 145 137 268 330 961 33 121 36 113 -65 161 -109 53 -203 65 -352
48z"/>
</g>
</svg>
